<?xml version="1.0" encoding="UTF-8"?>
<svg width="120px" height="120px" viewBox="0 0 120 120" version="1.1" xmlns="http://www.w3.org/2000/svg" xmlns:xlink="http://www.w3.org/1999/xlink">
    <title>Artboard</title>
    <g id="Artboard" stroke="none" stroke-width="1" fill="none" fill-rule="evenodd">
        <rect id="Rectangle" fill="#1B2127" x="0" y="0" width="120" height="120" rx="40"></rect>
        <g id="icon" transform="translate(31.000000, 26.000000)" fill="#FFFFFF" fill-rule="nonzero">
            <path d="M21.0909812,38.666583 L21.0909812,14.6665922 C21.0909812,13.916572 20.5142777,13.3332392 19.7727813,13.3332392 L17.1364538,13.3332392 C16.3949573,13.3332392 15.8182539,13.916572 15.8182539,14.6665922 L15.8182539,38.666583 C15.8182539,39.4166035 16.3949573,39.999936 17.1364538,39.999936 L19.7727813,39.999936 C20.5142777,39.999936 21.0909812,39.4166035 21.0909812,38.666583 Z M31.6364355,38.666583 L31.6364355,14.6665922 C31.6364355,13.916572 31.0597321,13.3332392 30.318236,13.3332392 L27.6819083,13.3332392 C26.9404119,13.3332392 26.3637085,13.916572 26.3637085,14.6665922 L26.3637085,38.666583 C26.3637085,39.4166035 26.9404119,39.999936 27.6819083,39.999936 L30.318236,39.999936 C31.0597321,39.999936 31.6364355,39.4166035 31.6364355,38.666583 Z M42.1818902,38.666583 L42.1818902,14.6665922 C42.1818902,13.916572 41.6051868,13.3332392 40.8636903,13.3332392 L38.2273628,13.3332392 C37.4858662,13.3332392 36.9091629,13.916572 36.9091629,14.6665922 L36.9091629,38.666583 C36.9091629,39.4166035 37.4858662,39.999936 38.2273628,39.999936 L40.8636903,39.999936 C41.6051868,39.999936 42.1818902,39.4166035 42.1818902,38.666583 Z M47.4546898,8.4998889 L47.4546898,47.9998359 L10.5455987,47.9998359 L10.5455987,8.4998889 C10.5455987,6.49985929 11.6578434,5.33319355 11.8637985,5.33319355 L46.1364899,5.33319355 C46.3424448,5.33319355 47.4546898,6.49985929 47.4546898,8.4998889 L47.4546898,8.4998889 Z M19.7728534,53.3331754 L38.2273628,53.3331754 L36.2500629,58.2081609 C36.1265042,58.3748485 35.7557561,58.6248063 35.5498008,58.6665149 L22.4915775,58.6665149 C22.244388,58.6248793 21.9148741,58.3748485 21.7913154,58.2081609 L19.7728534,53.3331754 Z M58,51.999895 L58,49.333262 C58,48.5832419 57.4232966,47.999909 56.6818001,47.999909 L52.7272726,47.999909 L52.7272726,8.49996183 C52.7272726,3.91664266 49.7613592,-7.10542736e-15 46.1363458,-7.10542736e-15 L11.8636544,-7.10542736e-15 C8.23864087,-7.10542736e-15 5.27272726,3.75002821 5.27272726,8.33334738 L5.27272726,47.999982 L1.31819982,47.999982 C0.576703414,47.999982 1.0658141e-14,48.5833145 1.0658141e-14,49.333335 L1.0658141e-14,51.999968 C1.0658141e-14,52.7499885 0.576703414,53.333321 1.31819982,53.333321 L14.0468373,53.333321 L16.9303544,60.29168 C17.7542473,62.3333449 20.2257819,64 22.4090368,64 L35.5908188,64 C37.774074,64 40.2456084,62.3333449 41.0695015,60.29168 L43.9530184,53.333321 L56.681656,53.333321 C57.4231525,53.333321 58,52.7499885 58,51.999968 L58,51.999895 Z" id="Shape" transform="translate(29.000000, 32.000000) rotate(-180.000000) translate(-29.000000, -32.000000) "></path>
        </g>
    </g>
</svg>