<?xml version="1.0" encoding="UTF-8"?>
<svg width="200px" height="200px" viewBox="0 0 200 200" version="1.1" xmlns="http://www.w3.org/2000/svg" xmlns:xlink="http://www.w3.org/1999/xlink">
    <!-- Generator: Sketch 48.2 (47327) - http://www.bohemiancoding.com/sketch -->
    <title>Custom Preset 4</title>
    <desc>Created with Sketch.</desc>
    <defs></defs>
    <g id="Page-1" stroke="none" stroke-width="1" fill="none" fill-rule="evenodd">
        <g id="Custom-Preset-4" fill="#000000" fill-rule="nonzero">
            <path d="M82.2728888,114.791481 L82.2728888,61.5415015 C82.2728888,59.8773941 80.9802777,58.5831244 79.318303,58.5831244 L73.4092929,58.5831244 C71.7473181,58.5831244 70.454707,59.8773941 70.454707,61.5415015 L70.454707,114.791481 C70.454707,116.455589 71.7473181,117.749858 73.4092929,117.749858 L79.318303,117.749858 C80.9802777,117.749858 82.2728888,116.455589 82.2728888,114.791481 Z M105.909252,114.791481 L105.909252,61.5415015 C105.909252,59.8773941 104.616641,58.5831244 102.954667,58.5831244 L97.0456565,58.5831244 C95.3836818,58.5831244 94.0910707,59.8773941 94.0910707,61.5415015 L94.0910707,114.791481 C94.0910707,116.455589 95.3836818,117.749858 97.0456565,117.749858 L102.954667,117.749858 C104.616641,117.749858 105.909252,116.455589 105.909252,114.791481 Z M129.545616,114.791481 L129.545616,61.5415015 C129.545616,59.8773941 128.253005,58.5831244 126.59103,58.5831244 L120.68202,58.5831244 C119.020045,58.5831244 117.727434,59.8773941 117.727434,61.5415015 L117.727434,114.791481 C117.727434,116.455589 119.020045,117.749858 120.68202,117.749858 L126.59103,117.749858 C128.253005,117.749858 129.545616,116.455589 129.545616,114.791481 Z M141.363798,47.8591285 L141.36396,135.499636 L58.6366868,135.499636 L58.6366868,47.8591285 C58.6366868,43.4215628 61.1296489,40.8330232 61.5912726,40.8330232 L138.409374,40.8330232 C138.870997,40.8330232 141.36396,43.4215628 141.36396,47.8591285 L141.363798,47.8591285 Z M79.3184646,147.332983 L120.68202,147.332983 L116.250141,158.149357 C115.973199,158.519195 115.142212,159.073789 114.680588,159.16633 L85.4121565,159.16633 C84.8581111,159.073951 84.1195454,158.519195 83.8426035,158.149357 L79.3184646,147.332983 Z M165,144.374767 L165,138.458175 C165,136.794068 163.707389,135.499798 162.045414,135.499798 L153.181818,135.499798 L153.181818,47.8592903 C153.181818,37.6900509 146.534081,29 138.409051,29 L61.5909495,29 C53.4659192,29 46.8181818,37.3203751 46.8181818,47.4896145 L46.8181818,135.49996 L37.9545858,135.49996 C36.2926111,135.49996 35,136.794229 35,138.458337 L35,144.374929 C35,146.039037 36.2926111,147.333306 37.9545858,147.333306 L66.4842904,147.333306 L72.947346,162.772165 C74.7940025,167.302109 80.333649,171 85.2271515,171 L114.772525,171 C119.666028,171 125.205674,167.302109 127.052331,162.772165 L133.515386,147.333306 L162.045091,147.333306 C163.707066,147.333306 164.999677,146.039037 164.999677,144.374929 L165,144.374767 Z" id="Shape" transform="translate(100.000000, 100.000000) rotate(-180.000000) translate(-100.000000, -100.000000) "></path>
        </g>
    </g>
</svg>