<svg xmlns="http://www.w3.org/2000/svg" viewBox="0 0 120 120"><g fill="none" fill-rule="evenodd"><rect width="120" height="120" fill="#1B2127" rx="40"/><path fill="#FFF" fill-rule="nonzero" d="M68 51.3v24c0 .8.5 1.4 1.2 1.4H72c.7 0 1.3-.6 1.3-1.4v-24c0-.7-.6-1.3-1.3-1.3h-2.7c-.7 0-1.3.6-1.3 1.3Zm-10.6 0v24c0 .8.5 1.4 1.3 1.4h2.6c.8 0 1.3-.6 1.3-1.4v-24c0-.7-.5-1.3-1.3-1.3h-2.6c-.8 0-1.3.6-1.3 1.3Zm-10.6 0v24c0 .8.6 1.4 1.3 1.4h2.7c.7 0 1.3-.6 1.3-1.4v-24c0-.7-.6-1.3-1.3-1.3H48c-.7 0-1.3.6-1.3 1.3Zm-5.3 30.2V42h37v39.5c0 2-1.2 3.2-1.4 3.2H43c-.2 0-1.4-1.2-1.4-3.2Zm27.7-44.8H50.8l2-5 .7-.4h13c.3 0 .6.3.7.5l2 4.9ZM31 38v2.7c0 .7.6 1.3 1.3 1.3h4v39.5c0 4.6 3 8.5 6.6 8.5H77c3.7 0 6.6-3.8 6.6-8.3V42h4c.7 0 1.3-.6 1.3-1.3V38c0-.7-.6-1.3-1.3-1.3H75l-3-7c-.8-2-3.2-3.7-5.4-3.7H53.4a6.4 6.4 0 0 0-5.5 3.7l-2.9 7H32.3c-.7 0-1.3.6-1.3 1.3Z"/></g></svg>
